M48
; DRILL file {KiCad 5.1.5+dfsg1-2build2} date Mon 07 Jun 2021 06:50:57 PM PDT
; FORMAT={-:-/ absolute / inch / decimal}
; #@! TF.CreationDate,2021-06-07T18:50:57-07:00
; #@! TF.GenerationSoftware,Kicad,Pcbnew,5.1.5+dfsg1-2build2
; #@! TF.FileFunction,Plated,1,2,PTH
FMAT,2
INCH
T1C0.0157
T2C0.0236
T3C0.0276
T4C0.0315
T5C0.0354
T6C0.0394
T7C0.0433
%
G90
G05
T1
X5.15Y-3.95
X5.15Y-4.1
X5.15Y-4.35
X5.3Y-3.95
X5.35Y-4.1
X5.4Y-4.1
X5.55Y-4.55
X5.55Y-4.6
X5.6Y-3.95
X5.6Y-4.1
X5.6Y-4.3
X5.65Y-4.35
X5.7Y-4.45
X6.0Y-3.2
X6.0Y-3.65
X6.0674Y-3.8804
X6.1Y-3.1571
X6.1Y-4.15
X6.1Y-4.25
X6.15Y-3.25
X6.45Y-4.3
X6.55Y-3.95
X6.85Y-2.85
T2
X6.4Y-3.1
X6.4787Y-3.1
T3
X4.3Y-4.3
X4.4Y-4.3
X4.3Y-2.95
X4.4Y-2.95
X6.65Y-4.1
X6.75Y-4.1
X6.4Y-2.8
X6.5Y-2.8
X4.3Y-4.75
X4.4Y-4.75
X4.3Y-3.85
X4.4Y-3.85
X6.65Y-4.35
X6.75Y-4.35
X4.3Y-3.4
X4.4Y-3.4
X6.65Y-4.85
X6.75Y-4.85
X6.65Y-4.6
X6.75Y-4.6
X6.65Y-3.85
X6.75Y-3.85
X4.3Y-2.5
X4.4Y-2.5
X6.65Y-3.6
X6.75Y-3.6
T4
X6.45Y-4.7713
X6.45Y-4.85
X6.65Y-2.6
X6.65Y-2.7
X6.65Y-2.8
X6.65Y-2.9
X6.65Y-3.0
X6.65Y-3.1
X6.65Y-3.2
X6.65Y-3.3
X6.95Y-2.6
X6.95Y-2.7
X6.95Y-2.8
X6.95Y-2.9
X6.95Y-3.0
X6.95Y-3.1
X6.95Y-3.2
X6.95Y-3.3
X7.35Y-2.6
X7.35Y-2.6787
X7.35Y-3.15
X7.35Y-3.2287
X7.6Y-4.1079
X7.6Y-4.3
X5.9Y-3.5
X5.9Y-3.6
X5.9Y-3.7
X5.9Y-3.8
X5.9Y-3.9
X5.9Y-4.0
X5.9Y-4.1
X5.9Y-4.2
X5.9Y-4.3
X5.9Y-4.4
X5.9Y-4.5
X5.9Y-4.6
X5.9Y-4.7
X5.9Y-4.8
X6.2Y-3.5
X6.2Y-3.6
X6.2Y-3.7
X6.2Y-3.8
X6.2Y-3.9
X6.2Y-4.0
X6.2Y-4.1
X6.2Y-4.2
X6.2Y-4.3
X6.2Y-4.4
X6.2Y-4.5
X6.2Y-4.6
X6.2Y-4.7
X6.2Y-4.8
T5
X6.9Y-3.6
X7.0Y-3.6
X6.9Y-4.85
X7.0Y-4.85
X6.9Y-4.6
X7.0Y-4.6
X6.9Y-4.1
X7.0Y-4.1
X6.9Y-4.35
X7.0Y-4.35
X6.9Y-3.85
X7.0Y-3.85
T6
X6.1Y-2.9
X6.1Y-3.0
X6.1Y-3.1
X6.2Y-2.9
X6.2Y-3.0
X6.2Y-3.1
T7
X4.8Y-3.7
X4.8Y-3.8772
X5.0559Y-3.7
X5.0559Y-3.8772
X4.8Y-2.8
X4.8Y-2.9772
X5.0559Y-2.8
X5.0559Y-2.9772
X4.8Y-4.15
X4.8Y-4.3272
X5.0559Y-4.15
X5.0559Y-4.3272
X4.8Y-2.35
X4.8Y-2.5272
X5.0559Y-2.35
X5.0559Y-2.5272
X4.8Y-3.25
X4.8Y-3.4272
X5.0559Y-3.25
X5.0559Y-3.4272
X6.75Y-5.15
X6.75Y-5.3272
X7.0059Y-5.15
X7.0059Y-5.3272
X4.8Y-4.6
X4.8Y-4.7772
X5.0559Y-4.6
X5.0559Y-4.7772
T0
M30
