G04 #@! TF.GenerationSoftware,KiCad,Pcbnew,5.1.5+dfsg1-2build2*
G04 #@! TF.CreationDate,2021-06-07T18:50:27-07:00*
G04 #@! TF.ProjectId,Atmega328p,41746d65-6761-4333-9238-702e6b696361,rev?*
G04 #@! TF.SameCoordinates,Original*
G04 #@! TF.FileFunction,Legend,Top*
G04 #@! TF.FilePolarity,Positive*
%FSLAX46Y46*%
G04 Gerber Fmt 4.6, Leading zero omitted, Abs format (unit mm)*
G04 Created by KiCad (PCBNEW 5.1.5+dfsg1-2build2) date 2021-06-07 18:50:27*
%MOMM*%
%LPD*%
G04 APERTURE LIST*
%ADD10C,0.150000*%
%ADD11C,0.120000*%
G04 APERTURE END LIST*
D10*
X100117142Y-142168571D02*
X100260000Y-142216190D01*
X100307619Y-142263809D01*
X100355238Y-142359047D01*
X100355238Y-142501904D01*
X100307619Y-142597142D01*
X100260000Y-142644761D01*
X100164761Y-142692380D01*
X99783809Y-142692380D01*
X99783809Y-141692380D01*
X100117142Y-141692380D01*
X100212380Y-141740000D01*
X100260000Y-141787619D01*
X100307619Y-141882857D01*
X100307619Y-141978095D01*
X100260000Y-142073333D01*
X100212380Y-142120952D01*
X100117142Y-142168571D01*
X99783809Y-142168571D01*
X100926666Y-142692380D02*
X100831428Y-142644761D01*
X100783809Y-142597142D01*
X100736190Y-142501904D01*
X100736190Y-142216190D01*
X100783809Y-142120952D01*
X100831428Y-142073333D01*
X100926666Y-142025714D01*
X101069523Y-142025714D01*
X101164761Y-142073333D01*
X101212380Y-142120952D01*
X101260000Y-142216190D01*
X101260000Y-142501904D01*
X101212380Y-142597142D01*
X101164761Y-142644761D01*
X101069523Y-142692380D01*
X100926666Y-142692380D01*
X101831428Y-142692380D02*
X101736190Y-142644761D01*
X101688571Y-142549523D01*
X101688571Y-141692380D01*
X102069523Y-142025714D02*
X102450476Y-142025714D01*
X102212380Y-141692380D02*
X102212380Y-142549523D01*
X102260000Y-142644761D01*
X102355238Y-142692380D01*
X102450476Y-142692380D01*
X102783809Y-142692380D02*
X102783809Y-141692380D01*
X103212380Y-142692380D02*
X103212380Y-142168571D01*
X103164761Y-142073333D01*
X103069523Y-142025714D01*
X102926666Y-142025714D01*
X102831428Y-142073333D01*
X102783809Y-142120952D01*
X104117142Y-142692380D02*
X104117142Y-142168571D01*
X104069523Y-142073333D01*
X103974285Y-142025714D01*
X103783809Y-142025714D01*
X103688571Y-142073333D01*
X104117142Y-142644761D02*
X104021904Y-142692380D01*
X103783809Y-142692380D01*
X103688571Y-142644761D01*
X103640952Y-142549523D01*
X103640952Y-142454285D01*
X103688571Y-142359047D01*
X103783809Y-142311428D01*
X104021904Y-142311428D01*
X104117142Y-142263809D01*
X104593333Y-142692380D02*
X104593333Y-141692380D01*
X104688571Y-142311428D02*
X104974285Y-142692380D01*
X104974285Y-142025714D02*
X104593333Y-142406666D01*
X105307619Y-142025714D02*
X105831428Y-142025714D01*
X105307619Y-142692380D01*
X105831428Y-142692380D01*
X106212380Y-142692380D02*
X106212380Y-142025714D01*
X106212380Y-141692380D02*
X106164761Y-141740000D01*
X106212380Y-141787619D01*
X106260000Y-141740000D01*
X106212380Y-141692380D01*
X106212380Y-141787619D01*
X106593333Y-142025714D02*
X106831428Y-142692380D01*
X107069523Y-142025714D02*
X106831428Y-142692380D01*
X106736190Y-142930476D01*
X106688571Y-142978095D01*
X106593333Y-143025714D01*
X107212380Y-142787619D02*
X107974285Y-142787619D01*
X108164761Y-142406666D02*
X108640952Y-142406666D01*
X108069523Y-142692380D02*
X108402857Y-141692380D01*
X108736190Y-142692380D01*
X108926666Y-142025714D02*
X109307619Y-142025714D01*
X109069523Y-141692380D02*
X109069523Y-142549523D01*
X109117142Y-142644761D01*
X109212380Y-142692380D01*
X109307619Y-142692380D01*
X109640952Y-142692380D02*
X109640952Y-142025714D01*
X109640952Y-142120952D02*
X109688571Y-142073333D01*
X109783809Y-142025714D01*
X109926666Y-142025714D01*
X110021904Y-142073333D01*
X110069523Y-142168571D01*
X110069523Y-142692380D01*
X110069523Y-142168571D02*
X110117142Y-142073333D01*
X110212380Y-142025714D01*
X110355238Y-142025714D01*
X110450476Y-142073333D01*
X110498095Y-142168571D01*
X110498095Y-142692380D01*
X111355238Y-142644761D02*
X111260000Y-142692380D01*
X111069523Y-142692380D01*
X110974285Y-142644761D01*
X110926666Y-142549523D01*
X110926666Y-142168571D01*
X110974285Y-142073333D01*
X111069523Y-142025714D01*
X111260000Y-142025714D01*
X111355238Y-142073333D01*
X111402857Y-142168571D01*
X111402857Y-142263809D01*
X110926666Y-142359047D01*
X112260000Y-142025714D02*
X112260000Y-142835238D01*
X112212380Y-142930476D01*
X112164761Y-142978095D01*
X112069523Y-143025714D01*
X111926666Y-143025714D01*
X111831428Y-142978095D01*
X112260000Y-142644761D02*
X112164761Y-142692380D01*
X111974285Y-142692380D01*
X111879047Y-142644761D01*
X111831428Y-142597142D01*
X111783809Y-142501904D01*
X111783809Y-142216190D01*
X111831428Y-142120952D01*
X111879047Y-142073333D01*
X111974285Y-142025714D01*
X112164761Y-142025714D01*
X112260000Y-142073333D01*
X113164761Y-142692380D02*
X113164761Y-142168571D01*
X113117142Y-142073333D01*
X113021904Y-142025714D01*
X112831428Y-142025714D01*
X112736190Y-142073333D01*
X113164761Y-142644761D02*
X113069523Y-142692380D01*
X112831428Y-142692380D01*
X112736190Y-142644761D01*
X112688571Y-142549523D01*
X112688571Y-142454285D01*
X112736190Y-142359047D01*
X112831428Y-142311428D01*
X113069523Y-142311428D01*
X113164761Y-142263809D01*
X113545714Y-141692380D02*
X114164761Y-141692380D01*
X113831428Y-142073333D01*
X113974285Y-142073333D01*
X114069523Y-142120952D01*
X114117142Y-142168571D01*
X114164761Y-142263809D01*
X114164761Y-142501904D01*
X114117142Y-142597142D01*
X114069523Y-142644761D01*
X113974285Y-142692380D01*
X113688571Y-142692380D01*
X113593333Y-142644761D01*
X113545714Y-142597142D01*
X114545714Y-141787619D02*
X114593333Y-141740000D01*
X114688571Y-141692380D01*
X114926666Y-141692380D01*
X115021904Y-141740000D01*
X115069523Y-141787619D01*
X115117142Y-141882857D01*
X115117142Y-141978095D01*
X115069523Y-142120952D01*
X114498095Y-142692380D01*
X115117142Y-142692380D01*
X115688571Y-142120952D02*
X115593333Y-142073333D01*
X115545714Y-142025714D01*
X115498095Y-141930476D01*
X115498095Y-141882857D01*
X115545714Y-141787619D01*
X115593333Y-141740000D01*
X115688571Y-141692380D01*
X115879047Y-141692380D01*
X115974285Y-141740000D01*
X116021904Y-141787619D01*
X116069523Y-141882857D01*
X116069523Y-141930476D01*
X116021904Y-142025714D01*
X115974285Y-142073333D01*
X115879047Y-142120952D01*
X115688571Y-142120952D01*
X115593333Y-142168571D01*
X115545714Y-142216190D01*
X115498095Y-142311428D01*
X115498095Y-142501904D01*
X115545714Y-142597142D01*
X115593333Y-142644761D01*
X115688571Y-142692380D01*
X115879047Y-142692380D01*
X115974285Y-142644761D01*
X116021904Y-142597142D01*
X116069523Y-142501904D01*
X116069523Y-142311428D01*
X116021904Y-142216190D01*
X115974285Y-142168571D01*
X115879047Y-142120952D01*
X116498095Y-142025714D02*
X116498095Y-143025714D01*
X116498095Y-142073333D02*
X116593333Y-142025714D01*
X116783809Y-142025714D01*
X116879047Y-142073333D01*
X116926666Y-142120952D01*
X116974285Y-142216190D01*
X116974285Y-142501904D01*
X116926666Y-142597142D01*
X116879047Y-142644761D01*
X116783809Y-142692380D01*
X116593333Y-142692380D01*
X116498095Y-142644761D01*
X117164761Y-142787619D02*
X117926666Y-142787619D01*
X118164761Y-142168571D02*
X118498095Y-142168571D01*
X118640952Y-142692380D02*
X118164761Y-142692380D01*
X118164761Y-141692380D01*
X118640952Y-141692380D01*
X119212380Y-142692380D02*
X119117142Y-142644761D01*
X119069523Y-142549523D01*
X119069523Y-141692380D01*
X119974285Y-142644761D02*
X119879047Y-142692380D01*
X119688571Y-142692380D01*
X119593333Y-142644761D01*
X119545714Y-142549523D01*
X119545714Y-142168571D01*
X119593333Y-142073333D01*
X119688571Y-142025714D01*
X119879047Y-142025714D01*
X119974285Y-142073333D01*
X120021904Y-142168571D01*
X120021904Y-142263809D01*
X119545714Y-142359047D01*
X120355238Y-142025714D02*
X120593333Y-142692380D01*
X120831428Y-142025714D01*
X121640952Y-142692380D02*
X121640952Y-142168571D01*
X121593333Y-142073333D01*
X121498095Y-142025714D01*
X121307619Y-142025714D01*
X121212380Y-142073333D01*
X121640952Y-142644761D02*
X121545714Y-142692380D01*
X121307619Y-142692380D01*
X121212380Y-142644761D01*
X121164761Y-142549523D01*
X121164761Y-142454285D01*
X121212380Y-142359047D01*
X121307619Y-142311428D01*
X121545714Y-142311428D01*
X121640952Y-142263809D01*
X121974285Y-142025714D02*
X122355238Y-142025714D01*
X122117142Y-141692380D02*
X122117142Y-142549523D01*
X122164761Y-142644761D01*
X122259999Y-142692380D01*
X122355238Y-142692380D01*
X122831428Y-142692380D02*
X122736190Y-142644761D01*
X122688571Y-142597142D01*
X122640952Y-142501904D01*
X122640952Y-142216190D01*
X122688571Y-142120952D01*
X122736190Y-142073333D01*
X122831428Y-142025714D01*
X122974285Y-142025714D01*
X123069523Y-142073333D01*
X123117142Y-142120952D01*
X123164761Y-142216190D01*
X123164761Y-142501904D01*
X123117142Y-142597142D01*
X123069523Y-142644761D01*
X122974285Y-142692380D01*
X122831428Y-142692380D01*
X123593333Y-142692380D02*
X123593333Y-142025714D01*
X123593333Y-142216190D02*
X123640952Y-142120952D01*
X123688571Y-142073333D01*
X123783809Y-142025714D01*
X123879047Y-142025714D01*
D11*
X185630000Y-78950000D02*
X186690000Y-78950000D01*
X185630000Y-80010000D02*
X185630000Y-78950000D01*
X185630000Y-81010000D02*
X187750000Y-81010000D01*
X187750000Y-81010000D02*
X187750000Y-83070000D01*
X185630000Y-81010000D02*
X185630000Y-83070000D01*
X185630000Y-83070000D02*
X187750000Y-83070000D01*
X163830000Y-124250000D02*
X162770000Y-124250000D01*
X162770000Y-124250000D02*
X162770000Y-123190000D01*
X162770000Y-122190000D02*
X162770000Y-120130000D01*
X164890000Y-120130000D02*
X162770000Y-120130000D01*
X164890000Y-122190000D02*
X164890000Y-120130000D01*
X164890000Y-122190000D02*
X162770000Y-122190000D01*
X185630000Y-64980000D02*
X186690000Y-64980000D01*
X185630000Y-66040000D02*
X185630000Y-64980000D01*
X185630000Y-67040000D02*
X187750000Y-67040000D01*
X187750000Y-67040000D02*
X187750000Y-69100000D01*
X185630000Y-67040000D02*
X185630000Y-69100000D01*
X185630000Y-69100000D02*
X187750000Y-69100000D01*
X195565000Y-103655000D02*
G75*
G03X190515000Y-103655000I-2525000J0D01*
G01*
X195565000Y-109905000D02*
G75*
G02X190515000Y-109905000I-2525000J0D01*
G01*
X195565000Y-109905000D02*
X195565000Y-103655000D01*
X190515000Y-109905000D02*
X190515000Y-103655000D01*
X170070000Y-85150000D02*
X171720000Y-85150000D01*
X170070000Y-64710000D02*
X170070000Y-85150000D01*
X175370000Y-64710000D02*
X170070000Y-64710000D01*
X175370000Y-85150000D02*
X175370000Y-64710000D01*
X173720000Y-85150000D02*
X175370000Y-85150000D01*
X171720000Y-85150000D02*
G75*
G02X173720000Y-85150000I1000000J0D01*
G01*
X151020000Y-123250000D02*
X152670000Y-123250000D01*
X151020000Y-87570000D02*
X151020000Y-123250000D01*
X156320000Y-87570000D02*
X151020000Y-87570000D01*
X156320000Y-123250000D02*
X156320000Y-87570000D01*
X154670000Y-123250000D02*
X156320000Y-123250000D01*
X152670000Y-123250000D02*
G75*
G02X154670000Y-123250000I1000000J0D01*
G01*
X178200000Y-133810000D02*
X178200000Y-132310000D01*
X176950000Y-129810000D02*
X172450000Y-129810000D01*
X171200000Y-132310000D02*
X171200000Y-133810000D01*
X172450000Y-136310000D02*
X176950000Y-136310000D01*
X128670000Y-62690000D02*
X128670000Y-61190000D01*
X127420000Y-58690000D02*
X122920000Y-58690000D01*
X121670000Y-61190000D02*
X121670000Y-62690000D01*
X122920000Y-65190000D02*
X127420000Y-65190000D01*
X128670000Y-74120000D02*
X128670000Y-72620000D01*
X127420000Y-70120000D02*
X122920000Y-70120000D01*
X121670000Y-72620000D02*
X121670000Y-74120000D01*
X122920000Y-76620000D02*
X127420000Y-76620000D01*
X128670000Y-85550000D02*
X128670000Y-84050000D01*
X127420000Y-81550000D02*
X122920000Y-81550000D01*
X121670000Y-84050000D02*
X121670000Y-85550000D01*
X122920000Y-88050000D02*
X127420000Y-88050000D01*
X128670000Y-96980000D02*
X128670000Y-95480000D01*
X127420000Y-92980000D02*
X122920000Y-92980000D01*
X121670000Y-95480000D02*
X121670000Y-96980000D01*
X122920000Y-99480000D02*
X127420000Y-99480000D01*
X128670000Y-108410000D02*
X128670000Y-106910000D01*
X127420000Y-104410000D02*
X122920000Y-104410000D01*
X121670000Y-106910000D02*
X121670000Y-108410000D01*
X122920000Y-110910000D02*
X127420000Y-110910000D01*
X128670000Y-119840000D02*
X128670000Y-118340000D01*
X127420000Y-115840000D02*
X122920000Y-115840000D01*
X121670000Y-118340000D02*
X121670000Y-119840000D01*
X122920000Y-122340000D02*
X127420000Y-122340000D01*
X163480000Y-71120000D02*
X164100000Y-71120000D01*
X163480000Y-71120000D02*
G75*
G03X163480000Y-71120000I-920000J0D01*
G01*
X170530000Y-91440000D02*
X169910000Y-91440000D01*
X172370000Y-91440000D02*
G75*
G03X172370000Y-91440000I-920000J0D01*
G01*
X170530000Y-97790000D02*
X169910000Y-97790000D01*
X172370000Y-97790000D02*
G75*
G03X172370000Y-97790000I-920000J0D01*
G01*
X170530000Y-104140000D02*
X169910000Y-104140000D01*
X172370000Y-104140000D02*
G75*
G03X172370000Y-104140000I-920000J0D01*
G01*
X170530000Y-110490000D02*
X169910000Y-110490000D01*
X172370000Y-110490000D02*
G75*
G03X172370000Y-110490000I-920000J0D01*
G01*
X170530000Y-116840000D02*
X169910000Y-116840000D01*
X172370000Y-116840000D02*
G75*
G03X172370000Y-116840000I-920000J0D01*
G01*
X170530000Y-123190000D02*
X169910000Y-123190000D01*
X172370000Y-123190000D02*
G75*
G03X172370000Y-123190000I-920000J0D01*
G01*
X110140000Y-63500000D02*
X110760000Y-63500000D01*
X110140000Y-63500000D02*
G75*
G03X110140000Y-63500000I-920000J0D01*
G01*
X110140000Y-74930000D02*
X110760000Y-74930000D01*
X110140000Y-74930000D02*
G75*
G03X110140000Y-74930000I-920000J0D01*
G01*
X110140000Y-86360000D02*
X110760000Y-86360000D01*
X110140000Y-86360000D02*
G75*
G03X110140000Y-86360000I-920000J0D01*
G01*
X110140000Y-97790000D02*
X110760000Y-97790000D01*
X110140000Y-97790000D02*
G75*
G03X110140000Y-97790000I-920000J0D01*
G01*
X110140000Y-109220000D02*
X110760000Y-109220000D01*
X110140000Y-109220000D02*
G75*
G03X110140000Y-109220000I-920000J0D01*
G01*
X110140000Y-120650000D02*
X110760000Y-120650000D01*
X110140000Y-120650000D02*
G75*
G03X110140000Y-120650000I-920000J0D01*
G01*
X157480000Y-72330000D02*
X158810000Y-72330000D01*
X158810000Y-72330000D02*
X158810000Y-73660000D01*
X156210000Y-72330000D02*
X156210000Y-74930000D01*
X156210000Y-74930000D02*
X158810000Y-74930000D01*
X158810000Y-74930000D02*
X158810000Y-80070000D01*
X153610000Y-80070000D02*
X158810000Y-80070000D01*
X153610000Y-72330000D02*
X153610000Y-80070000D01*
X153610000Y-72330000D02*
X156210000Y-72330000D01*
X178000000Y-90360000D02*
X178000000Y-90180000D01*
X178000000Y-92700000D02*
X178000000Y-92520000D01*
X178120000Y-90360000D02*
X178120000Y-90180000D01*
X178120000Y-92700000D02*
X178120000Y-92520000D01*
X174820000Y-90345000D02*
X174820000Y-90180000D01*
X174820000Y-92700000D02*
X174820000Y-92535000D01*
X178240000Y-90360000D02*
X178240000Y-90180000D01*
X178240000Y-92700000D02*
X178240000Y-92520000D01*
X178240000Y-90180000D02*
X174820000Y-90180000D01*
X178240000Y-92700000D02*
X174820000Y-92700000D01*
X178000000Y-96710000D02*
X178000000Y-96530000D01*
X178000000Y-99050000D02*
X178000000Y-98870000D01*
X178120000Y-96710000D02*
X178120000Y-96530000D01*
X178120000Y-99050000D02*
X178120000Y-98870000D01*
X174820000Y-96695000D02*
X174820000Y-96530000D01*
X174820000Y-99050000D02*
X174820000Y-98885000D01*
X178240000Y-96710000D02*
X178240000Y-96530000D01*
X178240000Y-99050000D02*
X178240000Y-98870000D01*
X178240000Y-96530000D02*
X174820000Y-96530000D01*
X178240000Y-99050000D02*
X174820000Y-99050000D01*
X178000000Y-103060000D02*
X178000000Y-102880000D01*
X178000000Y-105400000D02*
X178000000Y-105220000D01*
X178120000Y-103060000D02*
X178120000Y-102880000D01*
X178120000Y-105400000D02*
X178120000Y-105220000D01*
X174820000Y-103045000D02*
X174820000Y-102880000D01*
X174820000Y-105400000D02*
X174820000Y-105235000D01*
X178240000Y-103060000D02*
X178240000Y-102880000D01*
X178240000Y-105400000D02*
X178240000Y-105220000D01*
X178240000Y-102880000D02*
X174820000Y-102880000D01*
X178240000Y-105400000D02*
X174820000Y-105400000D01*
X178000000Y-109410000D02*
X178000000Y-109230000D01*
X178000000Y-111750000D02*
X178000000Y-111570000D01*
X178120000Y-109410000D02*
X178120000Y-109230000D01*
X178120000Y-111750000D02*
X178120000Y-111570000D01*
X174820000Y-109395000D02*
X174820000Y-109230000D01*
X174820000Y-111750000D02*
X174820000Y-111585000D01*
X178240000Y-109410000D02*
X178240000Y-109230000D01*
X178240000Y-111750000D02*
X178240000Y-111570000D01*
X178240000Y-109230000D02*
X174820000Y-109230000D01*
X178240000Y-111750000D02*
X174820000Y-111750000D01*
X178000000Y-115760000D02*
X178000000Y-115580000D01*
X178000000Y-118100000D02*
X178000000Y-117920000D01*
X178120000Y-115760000D02*
X178120000Y-115580000D01*
X178120000Y-118100000D02*
X178120000Y-117920000D01*
X174820000Y-115745000D02*
X174820000Y-115580000D01*
X174820000Y-118100000D02*
X174820000Y-117935000D01*
X178240000Y-115760000D02*
X178240000Y-115580000D01*
X178240000Y-118100000D02*
X178240000Y-117920000D01*
X178240000Y-115580000D02*
X174820000Y-115580000D01*
X178240000Y-118100000D02*
X174820000Y-118100000D01*
X178000000Y-122110000D02*
X178000000Y-121930000D01*
X178000000Y-124450000D02*
X178000000Y-124270000D01*
X178120000Y-122110000D02*
X178120000Y-121930000D01*
X178120000Y-124450000D02*
X178120000Y-124270000D01*
X174820000Y-122095000D02*
X174820000Y-121930000D01*
X174820000Y-124450000D02*
X174820000Y-124285000D01*
X178240000Y-122110000D02*
X178240000Y-121930000D01*
X178240000Y-124450000D02*
X178240000Y-124270000D01*
X178240000Y-121930000D02*
X174820000Y-121930000D01*
X178240000Y-124450000D02*
X174820000Y-124450000D01*
X161490199Y-77345000D02*
X161490199Y-77745000D01*
X161290199Y-77545000D02*
X161690199Y-77545000D01*
X165641000Y-78370000D02*
X165641000Y-79110000D01*
X165601000Y-78203000D02*
X165601000Y-79277000D01*
X165561000Y-78076000D02*
X165561000Y-79404000D01*
X165521000Y-77972000D02*
X165521000Y-79508000D01*
X165481000Y-77881000D02*
X165481000Y-79599000D01*
X165441000Y-77800000D02*
X165441000Y-79680000D01*
X165401000Y-77727000D02*
X165401000Y-79753000D01*
X165361000Y-79580000D02*
X165361000Y-79820000D01*
X165361000Y-77660000D02*
X165361000Y-77900000D01*
X165321000Y-79580000D02*
X165321000Y-79882000D01*
X165321000Y-77598000D02*
X165321000Y-77900000D01*
X165281000Y-79580000D02*
X165281000Y-79940000D01*
X165281000Y-77540000D02*
X165281000Y-77900000D01*
X165241000Y-79580000D02*
X165241000Y-79994000D01*
X165241000Y-77486000D02*
X165241000Y-77900000D01*
X165201000Y-79580000D02*
X165201000Y-80044000D01*
X165201000Y-77436000D02*
X165201000Y-77900000D01*
X165161000Y-79580000D02*
X165161000Y-80091000D01*
X165161000Y-77389000D02*
X165161000Y-77900000D01*
X165121000Y-79580000D02*
X165121000Y-80136000D01*
X165121000Y-77344000D02*
X165121000Y-77900000D01*
X165081000Y-79580000D02*
X165081000Y-80178000D01*
X165081000Y-77302000D02*
X165081000Y-77900000D01*
X165041000Y-79580000D02*
X165041000Y-80218000D01*
X165041000Y-77262000D02*
X165041000Y-77900000D01*
X165001000Y-79580000D02*
X165001000Y-80256000D01*
X165001000Y-77224000D02*
X165001000Y-77900000D01*
X164961000Y-79580000D02*
X164961000Y-80292000D01*
X164961000Y-77188000D02*
X164961000Y-77900000D01*
X164921000Y-79580000D02*
X164921000Y-80327000D01*
X164921000Y-77153000D02*
X164921000Y-77900000D01*
X164881000Y-79580000D02*
X164881000Y-80359000D01*
X164881000Y-77121000D02*
X164881000Y-77900000D01*
X164841000Y-79580000D02*
X164841000Y-80390000D01*
X164841000Y-77090000D02*
X164841000Y-77900000D01*
X164801000Y-79580000D02*
X164801000Y-80420000D01*
X164801000Y-77060000D02*
X164801000Y-77900000D01*
X164761000Y-79580000D02*
X164761000Y-80448000D01*
X164761000Y-77032000D02*
X164761000Y-77900000D01*
X164721000Y-79580000D02*
X164721000Y-80475000D01*
X164721000Y-77005000D02*
X164721000Y-77900000D01*
X164681000Y-79580000D02*
X164681000Y-80500000D01*
X164681000Y-76980000D02*
X164681000Y-77900000D01*
X164641000Y-79580000D02*
X164641000Y-80525000D01*
X164641000Y-76955000D02*
X164641000Y-77900000D01*
X164601000Y-79580000D02*
X164601000Y-80548000D01*
X164601000Y-76932000D02*
X164601000Y-77900000D01*
X164561000Y-79580000D02*
X164561000Y-80570000D01*
X164561000Y-76910000D02*
X164561000Y-77900000D01*
X164521000Y-79580000D02*
X164521000Y-80591000D01*
X164521000Y-76889000D02*
X164521000Y-77900000D01*
X164481000Y-79580000D02*
X164481000Y-80610000D01*
X164481000Y-76870000D02*
X164481000Y-77900000D01*
X164441000Y-79580000D02*
X164441000Y-80629000D01*
X164441000Y-76851000D02*
X164441000Y-77900000D01*
X164401000Y-79580000D02*
X164401000Y-80647000D01*
X164401000Y-76833000D02*
X164401000Y-77900000D01*
X164361000Y-79580000D02*
X164361000Y-80664000D01*
X164361000Y-76816000D02*
X164361000Y-77900000D01*
X164321000Y-79580000D02*
X164321000Y-80680000D01*
X164321000Y-76800000D02*
X164321000Y-77900000D01*
X164281000Y-79580000D02*
X164281000Y-80694000D01*
X164281000Y-76786000D02*
X164281000Y-77900000D01*
X164240000Y-79580000D02*
X164240000Y-80708000D01*
X164240000Y-76772000D02*
X164240000Y-77900000D01*
X164200000Y-79580000D02*
X164200000Y-80722000D01*
X164200000Y-76758000D02*
X164200000Y-77900000D01*
X164160000Y-79580000D02*
X164160000Y-80734000D01*
X164160000Y-76746000D02*
X164160000Y-77900000D01*
X164120000Y-79580000D02*
X164120000Y-80745000D01*
X164120000Y-76735000D02*
X164120000Y-77900000D01*
X164080000Y-79580000D02*
X164080000Y-80756000D01*
X164080000Y-76724000D02*
X164080000Y-77900000D01*
X164040000Y-79580000D02*
X164040000Y-80765000D01*
X164040000Y-76715000D02*
X164040000Y-77900000D01*
X164000000Y-79580000D02*
X164000000Y-80774000D01*
X164000000Y-76706000D02*
X164000000Y-77900000D01*
X163960000Y-79580000D02*
X163960000Y-80782000D01*
X163960000Y-76698000D02*
X163960000Y-77900000D01*
X163920000Y-79580000D02*
X163920000Y-80790000D01*
X163920000Y-76690000D02*
X163920000Y-77900000D01*
X163880000Y-79580000D02*
X163880000Y-80796000D01*
X163880000Y-76684000D02*
X163880000Y-77900000D01*
X163840000Y-79580000D02*
X163840000Y-80802000D01*
X163840000Y-76678000D02*
X163840000Y-77900000D01*
X163800000Y-79580000D02*
X163800000Y-80807000D01*
X163800000Y-76673000D02*
X163800000Y-77900000D01*
X163760000Y-79580000D02*
X163760000Y-80811000D01*
X163760000Y-76669000D02*
X163760000Y-77900000D01*
X163720000Y-76666000D02*
X163720000Y-80814000D01*
X163680000Y-76663000D02*
X163680000Y-80817000D01*
X163640000Y-76661000D02*
X163640000Y-80819000D01*
X163600000Y-76660000D02*
X163600000Y-80820000D01*
X163560000Y-76660000D02*
X163560000Y-80820000D01*
X165680000Y-78740000D02*
G75*
G03X165680000Y-78740000I-2120000J0D01*
G01*
D10*
X186356666Y-77402380D02*
X186356666Y-78116666D01*
X186309047Y-78259523D01*
X186213809Y-78354761D01*
X186070952Y-78402380D01*
X185975714Y-78402380D01*
X187261428Y-77735714D02*
X187261428Y-78402380D01*
X187023333Y-77354761D02*
X186785238Y-78069047D01*
X187404285Y-78069047D01*
X163496666Y-125142380D02*
X163496666Y-125856666D01*
X163449047Y-125999523D01*
X163353809Y-126094761D01*
X163210952Y-126142380D01*
X163115714Y-126142380D01*
X163877619Y-125142380D02*
X164496666Y-125142380D01*
X164163333Y-125523333D01*
X164306190Y-125523333D01*
X164401428Y-125570952D01*
X164449047Y-125618571D01*
X164496666Y-125713809D01*
X164496666Y-125951904D01*
X164449047Y-126047142D01*
X164401428Y-126094761D01*
X164306190Y-126142380D01*
X164020476Y-126142380D01*
X163925238Y-126094761D01*
X163877619Y-126047142D01*
X186356666Y-63432380D02*
X186356666Y-64146666D01*
X186309047Y-64289523D01*
X186213809Y-64384761D01*
X186070952Y-64432380D01*
X185975714Y-64432380D01*
X186785238Y-63527619D02*
X186832857Y-63480000D01*
X186928095Y-63432380D01*
X187166190Y-63432380D01*
X187261428Y-63480000D01*
X187309047Y-63527619D01*
X187356666Y-63622857D01*
X187356666Y-63718095D01*
X187309047Y-63860952D01*
X186737619Y-64432380D01*
X187356666Y-64432380D01*
X189491190Y-107256190D02*
X189967380Y-107256190D01*
X188967380Y-107589523D02*
X189491190Y-107256190D01*
X188967380Y-106922857D01*
X189967380Y-106065714D02*
X189967380Y-106637142D01*
X189967380Y-106351428D02*
X188967380Y-106351428D01*
X189110238Y-106446666D01*
X189205476Y-106541904D01*
X189253095Y-106637142D01*
X171958095Y-85602380D02*
X171958095Y-86411904D01*
X172005714Y-86507142D01*
X172053333Y-86554761D01*
X172148571Y-86602380D01*
X172339047Y-86602380D01*
X172434285Y-86554761D01*
X172481904Y-86507142D01*
X172529523Y-86411904D01*
X172529523Y-85602380D01*
X172958095Y-85697619D02*
X173005714Y-85650000D01*
X173100952Y-85602380D01*
X173339047Y-85602380D01*
X173434285Y-85650000D01*
X173481904Y-85697619D01*
X173529523Y-85792857D01*
X173529523Y-85888095D01*
X173481904Y-86030952D01*
X172910476Y-86602380D01*
X173529523Y-86602380D01*
X152908095Y-123702380D02*
X152908095Y-124511904D01*
X152955714Y-124607142D01*
X153003333Y-124654761D01*
X153098571Y-124702380D01*
X153289047Y-124702380D01*
X153384285Y-124654761D01*
X153431904Y-124607142D01*
X153479523Y-124511904D01*
X153479523Y-123702380D01*
X154479523Y-124702380D02*
X153908095Y-124702380D01*
X154193809Y-124702380D02*
X154193809Y-123702380D01*
X154098571Y-123845238D01*
X154003333Y-123940476D01*
X153908095Y-123988095D01*
X173366666Y-129214761D02*
X173509523Y-129262380D01*
X173747619Y-129262380D01*
X173842857Y-129214761D01*
X173890476Y-129167142D01*
X173938095Y-129071904D01*
X173938095Y-128976666D01*
X173890476Y-128881428D01*
X173842857Y-128833809D01*
X173747619Y-128786190D01*
X173557142Y-128738571D01*
X173461904Y-128690952D01*
X173414285Y-128643333D01*
X173366666Y-128548095D01*
X173366666Y-128452857D01*
X173414285Y-128357619D01*
X173461904Y-128310000D01*
X173557142Y-128262380D01*
X173795238Y-128262380D01*
X173938095Y-128310000D01*
X174271428Y-128262380D02*
X174509523Y-129262380D01*
X174700000Y-128548095D01*
X174890476Y-129262380D01*
X175128571Y-128262380D01*
X175414285Y-128262380D02*
X176080952Y-128262380D01*
X175652380Y-129262380D01*
X123836666Y-58094761D02*
X123979523Y-58142380D01*
X124217619Y-58142380D01*
X124312857Y-58094761D01*
X124360476Y-58047142D01*
X124408095Y-57951904D01*
X124408095Y-57856666D01*
X124360476Y-57761428D01*
X124312857Y-57713809D01*
X124217619Y-57666190D01*
X124027142Y-57618571D01*
X123931904Y-57570952D01*
X123884285Y-57523333D01*
X123836666Y-57428095D01*
X123836666Y-57332857D01*
X123884285Y-57237619D01*
X123931904Y-57190000D01*
X124027142Y-57142380D01*
X124265238Y-57142380D01*
X124408095Y-57190000D01*
X124741428Y-57142380D02*
X124979523Y-58142380D01*
X125170000Y-57428095D01*
X125360476Y-58142380D01*
X125598571Y-57142380D01*
X126408095Y-57142380D02*
X126217619Y-57142380D01*
X126122380Y-57190000D01*
X126074761Y-57237619D01*
X125979523Y-57380476D01*
X125931904Y-57570952D01*
X125931904Y-57951904D01*
X125979523Y-58047142D01*
X126027142Y-58094761D01*
X126122380Y-58142380D01*
X126312857Y-58142380D01*
X126408095Y-58094761D01*
X126455714Y-58047142D01*
X126503333Y-57951904D01*
X126503333Y-57713809D01*
X126455714Y-57618571D01*
X126408095Y-57570952D01*
X126312857Y-57523333D01*
X126122380Y-57523333D01*
X126027142Y-57570952D01*
X125979523Y-57618571D01*
X125931904Y-57713809D01*
X123836666Y-69524761D02*
X123979523Y-69572380D01*
X124217619Y-69572380D01*
X124312857Y-69524761D01*
X124360476Y-69477142D01*
X124408095Y-69381904D01*
X124408095Y-69286666D01*
X124360476Y-69191428D01*
X124312857Y-69143809D01*
X124217619Y-69096190D01*
X124027142Y-69048571D01*
X123931904Y-69000952D01*
X123884285Y-68953333D01*
X123836666Y-68858095D01*
X123836666Y-68762857D01*
X123884285Y-68667619D01*
X123931904Y-68620000D01*
X124027142Y-68572380D01*
X124265238Y-68572380D01*
X124408095Y-68620000D01*
X124741428Y-68572380D02*
X124979523Y-69572380D01*
X125170000Y-68858095D01*
X125360476Y-69572380D01*
X125598571Y-68572380D01*
X126455714Y-68572380D02*
X125979523Y-68572380D01*
X125931904Y-69048571D01*
X125979523Y-69000952D01*
X126074761Y-68953333D01*
X126312857Y-68953333D01*
X126408095Y-69000952D01*
X126455714Y-69048571D01*
X126503333Y-69143809D01*
X126503333Y-69381904D01*
X126455714Y-69477142D01*
X126408095Y-69524761D01*
X126312857Y-69572380D01*
X126074761Y-69572380D01*
X125979523Y-69524761D01*
X125931904Y-69477142D01*
X123836666Y-80954761D02*
X123979523Y-81002380D01*
X124217619Y-81002380D01*
X124312857Y-80954761D01*
X124360476Y-80907142D01*
X124408095Y-80811904D01*
X124408095Y-80716666D01*
X124360476Y-80621428D01*
X124312857Y-80573809D01*
X124217619Y-80526190D01*
X124027142Y-80478571D01*
X123931904Y-80430952D01*
X123884285Y-80383333D01*
X123836666Y-80288095D01*
X123836666Y-80192857D01*
X123884285Y-80097619D01*
X123931904Y-80050000D01*
X124027142Y-80002380D01*
X124265238Y-80002380D01*
X124408095Y-80050000D01*
X124741428Y-80002380D02*
X124979523Y-81002380D01*
X125170000Y-80288095D01*
X125360476Y-81002380D01*
X125598571Y-80002380D01*
X126408095Y-80335714D02*
X126408095Y-81002380D01*
X126170000Y-79954761D02*
X125931904Y-80669047D01*
X126550952Y-80669047D01*
X123836666Y-92384761D02*
X123979523Y-92432380D01*
X124217619Y-92432380D01*
X124312857Y-92384761D01*
X124360476Y-92337142D01*
X124408095Y-92241904D01*
X124408095Y-92146666D01*
X124360476Y-92051428D01*
X124312857Y-92003809D01*
X124217619Y-91956190D01*
X124027142Y-91908571D01*
X123931904Y-91860952D01*
X123884285Y-91813333D01*
X123836666Y-91718095D01*
X123836666Y-91622857D01*
X123884285Y-91527619D01*
X123931904Y-91480000D01*
X124027142Y-91432380D01*
X124265238Y-91432380D01*
X124408095Y-91480000D01*
X124741428Y-91432380D02*
X124979523Y-92432380D01*
X125170000Y-91718095D01*
X125360476Y-92432380D01*
X125598571Y-91432380D01*
X125884285Y-91432380D02*
X126503333Y-91432380D01*
X126170000Y-91813333D01*
X126312857Y-91813333D01*
X126408095Y-91860952D01*
X126455714Y-91908571D01*
X126503333Y-92003809D01*
X126503333Y-92241904D01*
X126455714Y-92337142D01*
X126408095Y-92384761D01*
X126312857Y-92432380D01*
X126027142Y-92432380D01*
X125931904Y-92384761D01*
X125884285Y-92337142D01*
X123836666Y-103814761D02*
X123979523Y-103862380D01*
X124217619Y-103862380D01*
X124312857Y-103814761D01*
X124360476Y-103767142D01*
X124408095Y-103671904D01*
X124408095Y-103576666D01*
X124360476Y-103481428D01*
X124312857Y-103433809D01*
X124217619Y-103386190D01*
X124027142Y-103338571D01*
X123931904Y-103290952D01*
X123884285Y-103243333D01*
X123836666Y-103148095D01*
X123836666Y-103052857D01*
X123884285Y-102957619D01*
X123931904Y-102910000D01*
X124027142Y-102862380D01*
X124265238Y-102862380D01*
X124408095Y-102910000D01*
X124741428Y-102862380D02*
X124979523Y-103862380D01*
X125170000Y-103148095D01*
X125360476Y-103862380D01*
X125598571Y-102862380D01*
X125931904Y-102957619D02*
X125979523Y-102910000D01*
X126074761Y-102862380D01*
X126312857Y-102862380D01*
X126408095Y-102910000D01*
X126455714Y-102957619D01*
X126503333Y-103052857D01*
X126503333Y-103148095D01*
X126455714Y-103290952D01*
X125884285Y-103862380D01*
X126503333Y-103862380D01*
X123836666Y-115244761D02*
X123979523Y-115292380D01*
X124217619Y-115292380D01*
X124312857Y-115244761D01*
X124360476Y-115197142D01*
X124408095Y-115101904D01*
X124408095Y-115006666D01*
X124360476Y-114911428D01*
X124312857Y-114863809D01*
X124217619Y-114816190D01*
X124027142Y-114768571D01*
X123931904Y-114720952D01*
X123884285Y-114673333D01*
X123836666Y-114578095D01*
X123836666Y-114482857D01*
X123884285Y-114387619D01*
X123931904Y-114340000D01*
X124027142Y-114292380D01*
X124265238Y-114292380D01*
X124408095Y-114340000D01*
X124741428Y-114292380D02*
X124979523Y-115292380D01*
X125170000Y-114578095D01*
X125360476Y-115292380D01*
X125598571Y-114292380D01*
X126503333Y-115292380D02*
X125931904Y-115292380D01*
X126217619Y-115292380D02*
X126217619Y-114292380D01*
X126122380Y-114435238D01*
X126027142Y-114530476D01*
X125931904Y-114578095D01*
X163187142Y-69652380D02*
X162853809Y-69176190D01*
X162615714Y-69652380D02*
X162615714Y-68652380D01*
X162996666Y-68652380D01*
X163091904Y-68700000D01*
X163139523Y-68747619D01*
X163187142Y-68842857D01*
X163187142Y-68985714D01*
X163139523Y-69080952D01*
X163091904Y-69128571D01*
X162996666Y-69176190D01*
X162615714Y-69176190D01*
X164139523Y-69652380D02*
X163568095Y-69652380D01*
X163853809Y-69652380D02*
X163853809Y-68652380D01*
X163758571Y-68795238D01*
X163663333Y-68890476D01*
X163568095Y-68938095D01*
X164472857Y-68652380D02*
X165091904Y-68652380D01*
X164758571Y-69033333D01*
X164901428Y-69033333D01*
X164996666Y-69080952D01*
X165044285Y-69128571D01*
X165091904Y-69223809D01*
X165091904Y-69461904D01*
X165044285Y-69557142D01*
X164996666Y-69604761D01*
X164901428Y-69652380D01*
X164615714Y-69652380D01*
X164520476Y-69604761D01*
X164472857Y-69557142D01*
X169537142Y-93812380D02*
X169203809Y-93336190D01*
X168965714Y-93812380D02*
X168965714Y-92812380D01*
X169346666Y-92812380D01*
X169441904Y-92860000D01*
X169489523Y-92907619D01*
X169537142Y-93002857D01*
X169537142Y-93145714D01*
X169489523Y-93240952D01*
X169441904Y-93288571D01*
X169346666Y-93336190D01*
X168965714Y-93336190D01*
X170489523Y-93812380D02*
X169918095Y-93812380D01*
X170203809Y-93812380D02*
X170203809Y-92812380D01*
X170108571Y-92955238D01*
X170013333Y-93050476D01*
X169918095Y-93098095D01*
X170870476Y-92907619D02*
X170918095Y-92860000D01*
X171013333Y-92812380D01*
X171251428Y-92812380D01*
X171346666Y-92860000D01*
X171394285Y-92907619D01*
X171441904Y-93002857D01*
X171441904Y-93098095D01*
X171394285Y-93240952D01*
X170822857Y-93812380D01*
X171441904Y-93812380D01*
X169537142Y-100162380D02*
X169203809Y-99686190D01*
X168965714Y-100162380D02*
X168965714Y-99162380D01*
X169346666Y-99162380D01*
X169441904Y-99210000D01*
X169489523Y-99257619D01*
X169537142Y-99352857D01*
X169537142Y-99495714D01*
X169489523Y-99590952D01*
X169441904Y-99638571D01*
X169346666Y-99686190D01*
X168965714Y-99686190D01*
X170489523Y-100162380D02*
X169918095Y-100162380D01*
X170203809Y-100162380D02*
X170203809Y-99162380D01*
X170108571Y-99305238D01*
X170013333Y-99400476D01*
X169918095Y-99448095D01*
X171441904Y-100162380D02*
X170870476Y-100162380D01*
X171156190Y-100162380D02*
X171156190Y-99162380D01*
X171060952Y-99305238D01*
X170965714Y-99400476D01*
X170870476Y-99448095D01*
X169537142Y-106512380D02*
X169203809Y-106036190D01*
X168965714Y-106512380D02*
X168965714Y-105512380D01*
X169346666Y-105512380D01*
X169441904Y-105560000D01*
X169489523Y-105607619D01*
X169537142Y-105702857D01*
X169537142Y-105845714D01*
X169489523Y-105940952D01*
X169441904Y-105988571D01*
X169346666Y-106036190D01*
X168965714Y-106036190D01*
X170489523Y-106512380D02*
X169918095Y-106512380D01*
X170203809Y-106512380D02*
X170203809Y-105512380D01*
X170108571Y-105655238D01*
X170013333Y-105750476D01*
X169918095Y-105798095D01*
X171108571Y-105512380D02*
X171203809Y-105512380D01*
X171299047Y-105560000D01*
X171346666Y-105607619D01*
X171394285Y-105702857D01*
X171441904Y-105893333D01*
X171441904Y-106131428D01*
X171394285Y-106321904D01*
X171346666Y-106417142D01*
X171299047Y-106464761D01*
X171203809Y-106512380D01*
X171108571Y-106512380D01*
X171013333Y-106464761D01*
X170965714Y-106417142D01*
X170918095Y-106321904D01*
X170870476Y-106131428D01*
X170870476Y-105893333D01*
X170918095Y-105702857D01*
X170965714Y-105607619D01*
X171013333Y-105560000D01*
X171108571Y-105512380D01*
X170013333Y-112862380D02*
X169680000Y-112386190D01*
X169441904Y-112862380D02*
X169441904Y-111862380D01*
X169822857Y-111862380D01*
X169918095Y-111910000D01*
X169965714Y-111957619D01*
X170013333Y-112052857D01*
X170013333Y-112195714D01*
X169965714Y-112290952D01*
X169918095Y-112338571D01*
X169822857Y-112386190D01*
X169441904Y-112386190D01*
X170489523Y-112862380D02*
X170680000Y-112862380D01*
X170775238Y-112814761D01*
X170822857Y-112767142D01*
X170918095Y-112624285D01*
X170965714Y-112433809D01*
X170965714Y-112052857D01*
X170918095Y-111957619D01*
X170870476Y-111910000D01*
X170775238Y-111862380D01*
X170584761Y-111862380D01*
X170489523Y-111910000D01*
X170441904Y-111957619D01*
X170394285Y-112052857D01*
X170394285Y-112290952D01*
X170441904Y-112386190D01*
X170489523Y-112433809D01*
X170584761Y-112481428D01*
X170775238Y-112481428D01*
X170870476Y-112433809D01*
X170918095Y-112386190D01*
X170965714Y-112290952D01*
X170013333Y-119212380D02*
X169680000Y-118736190D01*
X169441904Y-119212380D02*
X169441904Y-118212380D01*
X169822857Y-118212380D01*
X169918095Y-118260000D01*
X169965714Y-118307619D01*
X170013333Y-118402857D01*
X170013333Y-118545714D01*
X169965714Y-118640952D01*
X169918095Y-118688571D01*
X169822857Y-118736190D01*
X169441904Y-118736190D01*
X170584761Y-118640952D02*
X170489523Y-118593333D01*
X170441904Y-118545714D01*
X170394285Y-118450476D01*
X170394285Y-118402857D01*
X170441904Y-118307619D01*
X170489523Y-118260000D01*
X170584761Y-118212380D01*
X170775238Y-118212380D01*
X170870476Y-118260000D01*
X170918095Y-118307619D01*
X170965714Y-118402857D01*
X170965714Y-118450476D01*
X170918095Y-118545714D01*
X170870476Y-118593333D01*
X170775238Y-118640952D01*
X170584761Y-118640952D01*
X170489523Y-118688571D01*
X170441904Y-118736190D01*
X170394285Y-118831428D01*
X170394285Y-119021904D01*
X170441904Y-119117142D01*
X170489523Y-119164761D01*
X170584761Y-119212380D01*
X170775238Y-119212380D01*
X170870476Y-119164761D01*
X170918095Y-119117142D01*
X170965714Y-119021904D01*
X170965714Y-118831428D01*
X170918095Y-118736190D01*
X170870476Y-118688571D01*
X170775238Y-118640952D01*
X170013333Y-125562380D02*
X169680000Y-125086190D01*
X169441904Y-125562380D02*
X169441904Y-124562380D01*
X169822857Y-124562380D01*
X169918095Y-124610000D01*
X169965714Y-124657619D01*
X170013333Y-124752857D01*
X170013333Y-124895714D01*
X169965714Y-124990952D01*
X169918095Y-125038571D01*
X169822857Y-125086190D01*
X169441904Y-125086190D01*
X170346666Y-124562380D02*
X171013333Y-124562380D01*
X170584761Y-125562380D01*
X110323333Y-62032380D02*
X109990000Y-61556190D01*
X109751904Y-62032380D02*
X109751904Y-61032380D01*
X110132857Y-61032380D01*
X110228095Y-61080000D01*
X110275714Y-61127619D01*
X110323333Y-61222857D01*
X110323333Y-61365714D01*
X110275714Y-61460952D01*
X110228095Y-61508571D01*
X110132857Y-61556190D01*
X109751904Y-61556190D01*
X111180476Y-61032380D02*
X110990000Y-61032380D01*
X110894761Y-61080000D01*
X110847142Y-61127619D01*
X110751904Y-61270476D01*
X110704285Y-61460952D01*
X110704285Y-61841904D01*
X110751904Y-61937142D01*
X110799523Y-61984761D01*
X110894761Y-62032380D01*
X111085238Y-62032380D01*
X111180476Y-61984761D01*
X111228095Y-61937142D01*
X111275714Y-61841904D01*
X111275714Y-61603809D01*
X111228095Y-61508571D01*
X111180476Y-61460952D01*
X111085238Y-61413333D01*
X110894761Y-61413333D01*
X110799523Y-61460952D01*
X110751904Y-61508571D01*
X110704285Y-61603809D01*
X110323333Y-73462380D02*
X109990000Y-72986190D01*
X109751904Y-73462380D02*
X109751904Y-72462380D01*
X110132857Y-72462380D01*
X110228095Y-72510000D01*
X110275714Y-72557619D01*
X110323333Y-72652857D01*
X110323333Y-72795714D01*
X110275714Y-72890952D01*
X110228095Y-72938571D01*
X110132857Y-72986190D01*
X109751904Y-72986190D01*
X111228095Y-72462380D02*
X110751904Y-72462380D01*
X110704285Y-72938571D01*
X110751904Y-72890952D01*
X110847142Y-72843333D01*
X111085238Y-72843333D01*
X111180476Y-72890952D01*
X111228095Y-72938571D01*
X111275714Y-73033809D01*
X111275714Y-73271904D01*
X111228095Y-73367142D01*
X111180476Y-73414761D01*
X111085238Y-73462380D01*
X110847142Y-73462380D01*
X110751904Y-73414761D01*
X110704285Y-73367142D01*
X110323333Y-84892380D02*
X109990000Y-84416190D01*
X109751904Y-84892380D02*
X109751904Y-83892380D01*
X110132857Y-83892380D01*
X110228095Y-83940000D01*
X110275714Y-83987619D01*
X110323333Y-84082857D01*
X110323333Y-84225714D01*
X110275714Y-84320952D01*
X110228095Y-84368571D01*
X110132857Y-84416190D01*
X109751904Y-84416190D01*
X111180476Y-84225714D02*
X111180476Y-84892380D01*
X110942380Y-83844761D02*
X110704285Y-84559047D01*
X111323333Y-84559047D01*
X110323333Y-96322380D02*
X109990000Y-95846190D01*
X109751904Y-96322380D02*
X109751904Y-95322380D01*
X110132857Y-95322380D01*
X110228095Y-95370000D01*
X110275714Y-95417619D01*
X110323333Y-95512857D01*
X110323333Y-95655714D01*
X110275714Y-95750952D01*
X110228095Y-95798571D01*
X110132857Y-95846190D01*
X109751904Y-95846190D01*
X110656666Y-95322380D02*
X111275714Y-95322380D01*
X110942380Y-95703333D01*
X111085238Y-95703333D01*
X111180476Y-95750952D01*
X111228095Y-95798571D01*
X111275714Y-95893809D01*
X111275714Y-96131904D01*
X111228095Y-96227142D01*
X111180476Y-96274761D01*
X111085238Y-96322380D01*
X110799523Y-96322380D01*
X110704285Y-96274761D01*
X110656666Y-96227142D01*
X110323333Y-107752380D02*
X109990000Y-107276190D01*
X109751904Y-107752380D02*
X109751904Y-106752380D01*
X110132857Y-106752380D01*
X110228095Y-106800000D01*
X110275714Y-106847619D01*
X110323333Y-106942857D01*
X110323333Y-107085714D01*
X110275714Y-107180952D01*
X110228095Y-107228571D01*
X110132857Y-107276190D01*
X109751904Y-107276190D01*
X110704285Y-106847619D02*
X110751904Y-106800000D01*
X110847142Y-106752380D01*
X111085238Y-106752380D01*
X111180476Y-106800000D01*
X111228095Y-106847619D01*
X111275714Y-106942857D01*
X111275714Y-107038095D01*
X111228095Y-107180952D01*
X110656666Y-107752380D01*
X111275714Y-107752380D01*
X110323333Y-119182380D02*
X109990000Y-118706190D01*
X109751904Y-119182380D02*
X109751904Y-118182380D01*
X110132857Y-118182380D01*
X110228095Y-118230000D01*
X110275714Y-118277619D01*
X110323333Y-118372857D01*
X110323333Y-118515714D01*
X110275714Y-118610952D01*
X110228095Y-118658571D01*
X110132857Y-118706190D01*
X109751904Y-118706190D01*
X111275714Y-119182380D02*
X110704285Y-119182380D01*
X110990000Y-119182380D02*
X110990000Y-118182380D01*
X110894761Y-118325238D01*
X110799523Y-118420476D01*
X110704285Y-118468095D01*
X155876666Y-70342380D02*
X155876666Y-71056666D01*
X155829047Y-71199523D01*
X155733809Y-71294761D01*
X155590952Y-71342380D01*
X155495714Y-71342380D01*
X156876666Y-71342380D02*
X156305238Y-71342380D01*
X156590952Y-71342380D02*
X156590952Y-70342380D01*
X156495714Y-70485238D01*
X156400476Y-70580476D01*
X156305238Y-70628095D01*
X175791904Y-94152380D02*
X175791904Y-93152380D01*
X176030000Y-93152380D01*
X176172857Y-93200000D01*
X176268095Y-93295238D01*
X176315714Y-93390476D01*
X176363333Y-93580952D01*
X176363333Y-93723809D01*
X176315714Y-93914285D01*
X176268095Y-94009523D01*
X176172857Y-94104761D01*
X176030000Y-94152380D01*
X175791904Y-94152380D01*
X177220476Y-93152380D02*
X177030000Y-93152380D01*
X176934761Y-93200000D01*
X176887142Y-93247619D01*
X176791904Y-93390476D01*
X176744285Y-93580952D01*
X176744285Y-93961904D01*
X176791904Y-94057142D01*
X176839523Y-94104761D01*
X176934761Y-94152380D01*
X177125238Y-94152380D01*
X177220476Y-94104761D01*
X177268095Y-94057142D01*
X177315714Y-93961904D01*
X177315714Y-93723809D01*
X177268095Y-93628571D01*
X177220476Y-93580952D01*
X177125238Y-93533333D01*
X176934761Y-93533333D01*
X176839523Y-93580952D01*
X176791904Y-93628571D01*
X176744285Y-93723809D01*
X175791904Y-100502380D02*
X175791904Y-99502380D01*
X176030000Y-99502380D01*
X176172857Y-99550000D01*
X176268095Y-99645238D01*
X176315714Y-99740476D01*
X176363333Y-99930952D01*
X176363333Y-100073809D01*
X176315714Y-100264285D01*
X176268095Y-100359523D01*
X176172857Y-100454761D01*
X176030000Y-100502380D01*
X175791904Y-100502380D01*
X177268095Y-99502380D02*
X176791904Y-99502380D01*
X176744285Y-99978571D01*
X176791904Y-99930952D01*
X176887142Y-99883333D01*
X177125238Y-99883333D01*
X177220476Y-99930952D01*
X177268095Y-99978571D01*
X177315714Y-100073809D01*
X177315714Y-100311904D01*
X177268095Y-100407142D01*
X177220476Y-100454761D01*
X177125238Y-100502380D01*
X176887142Y-100502380D01*
X176791904Y-100454761D01*
X176744285Y-100407142D01*
X175791904Y-106852380D02*
X175791904Y-105852380D01*
X176030000Y-105852380D01*
X176172857Y-105900000D01*
X176268095Y-105995238D01*
X176315714Y-106090476D01*
X176363333Y-106280952D01*
X176363333Y-106423809D01*
X176315714Y-106614285D01*
X176268095Y-106709523D01*
X176172857Y-106804761D01*
X176030000Y-106852380D01*
X175791904Y-106852380D01*
X177220476Y-106185714D02*
X177220476Y-106852380D01*
X176982380Y-105804761D02*
X176744285Y-106519047D01*
X177363333Y-106519047D01*
X175791904Y-113202380D02*
X175791904Y-112202380D01*
X176030000Y-112202380D01*
X176172857Y-112250000D01*
X176268095Y-112345238D01*
X176315714Y-112440476D01*
X176363333Y-112630952D01*
X176363333Y-112773809D01*
X176315714Y-112964285D01*
X176268095Y-113059523D01*
X176172857Y-113154761D01*
X176030000Y-113202380D01*
X175791904Y-113202380D01*
X176696666Y-112202380D02*
X177315714Y-112202380D01*
X176982380Y-112583333D01*
X177125238Y-112583333D01*
X177220476Y-112630952D01*
X177268095Y-112678571D01*
X177315714Y-112773809D01*
X177315714Y-113011904D01*
X177268095Y-113107142D01*
X177220476Y-113154761D01*
X177125238Y-113202380D01*
X176839523Y-113202380D01*
X176744285Y-113154761D01*
X176696666Y-113107142D01*
X175791904Y-119552380D02*
X175791904Y-118552380D01*
X176030000Y-118552380D01*
X176172857Y-118600000D01*
X176268095Y-118695238D01*
X176315714Y-118790476D01*
X176363333Y-118980952D01*
X176363333Y-119123809D01*
X176315714Y-119314285D01*
X176268095Y-119409523D01*
X176172857Y-119504761D01*
X176030000Y-119552380D01*
X175791904Y-119552380D01*
X176744285Y-118647619D02*
X176791904Y-118600000D01*
X176887142Y-118552380D01*
X177125238Y-118552380D01*
X177220476Y-118600000D01*
X177268095Y-118647619D01*
X177315714Y-118742857D01*
X177315714Y-118838095D01*
X177268095Y-118980952D01*
X176696666Y-119552380D01*
X177315714Y-119552380D01*
X175791904Y-125902380D02*
X175791904Y-124902380D01*
X176030000Y-124902380D01*
X176172857Y-124950000D01*
X176268095Y-125045238D01*
X176315714Y-125140476D01*
X176363333Y-125330952D01*
X176363333Y-125473809D01*
X176315714Y-125664285D01*
X176268095Y-125759523D01*
X176172857Y-125854761D01*
X176030000Y-125902380D01*
X175791904Y-125902380D01*
X177315714Y-125902380D02*
X176744285Y-125902380D01*
X177030000Y-125902380D02*
X177030000Y-124902380D01*
X176934761Y-125045238D01*
X176839523Y-125140476D01*
X176744285Y-125188095D01*
X163017142Y-110656666D02*
X163064761Y-110704285D01*
X163112380Y-110847142D01*
X163112380Y-110942380D01*
X163064761Y-111085238D01*
X162969523Y-111180476D01*
X162874285Y-111228095D01*
X162683809Y-111275714D01*
X162540952Y-111275714D01*
X162350476Y-111228095D01*
X162255238Y-111180476D01*
X162160000Y-111085238D01*
X162112380Y-110942380D01*
X162112380Y-110847142D01*
X162160000Y-110704285D01*
X162207619Y-110656666D01*
X162445714Y-109799523D02*
X163112380Y-109799523D01*
X162064761Y-110037619D02*
X162779047Y-110275714D01*
X162779047Y-109656666D01*
X163393333Y-75847142D02*
X163345714Y-75894761D01*
X163202857Y-75942380D01*
X163107619Y-75942380D01*
X162964761Y-75894761D01*
X162869523Y-75799523D01*
X162821904Y-75704285D01*
X162774285Y-75513809D01*
X162774285Y-75370952D01*
X162821904Y-75180476D01*
X162869523Y-75085238D01*
X162964761Y-74990000D01*
X163107619Y-74942380D01*
X163202857Y-74942380D01*
X163345714Y-74990000D01*
X163393333Y-75037619D01*
X163726666Y-74942380D02*
X164345714Y-74942380D01*
X164012380Y-75323333D01*
X164155238Y-75323333D01*
X164250476Y-75370952D01*
X164298095Y-75418571D01*
X164345714Y-75513809D01*
X164345714Y-75751904D01*
X164298095Y-75847142D01*
X164250476Y-75894761D01*
X164155238Y-75942380D01*
X163869523Y-75942380D01*
X163774285Y-75894761D01*
X163726666Y-75847142D01*
X186523333Y-105667142D02*
X186475714Y-105714761D01*
X186332857Y-105762380D01*
X186237619Y-105762380D01*
X186094761Y-105714761D01*
X185999523Y-105619523D01*
X185951904Y-105524285D01*
X185904285Y-105333809D01*
X185904285Y-105190952D01*
X185951904Y-105000476D01*
X185999523Y-104905238D01*
X186094761Y-104810000D01*
X186237619Y-104762380D01*
X186332857Y-104762380D01*
X186475714Y-104810000D01*
X186523333Y-104857619D01*
X186904285Y-104857619D02*
X186951904Y-104810000D01*
X187047142Y-104762380D01*
X187285238Y-104762380D01*
X187380476Y-104810000D01*
X187428095Y-104857619D01*
X187475714Y-104952857D01*
X187475714Y-105048095D01*
X187428095Y-105190952D01*
X186856666Y-105762380D01*
X187475714Y-105762380D01*
X186523333Y-110747142D02*
X186475714Y-110794761D01*
X186332857Y-110842380D01*
X186237619Y-110842380D01*
X186094761Y-110794761D01*
X185999523Y-110699523D01*
X185951904Y-110604285D01*
X185904285Y-110413809D01*
X185904285Y-110270952D01*
X185951904Y-110080476D01*
X185999523Y-109985238D01*
X186094761Y-109890000D01*
X186237619Y-109842380D01*
X186332857Y-109842380D01*
X186475714Y-109890000D01*
X186523333Y-109937619D01*
X187475714Y-110842380D02*
X186904285Y-110842380D01*
X187190000Y-110842380D02*
X187190000Y-109842380D01*
X187094761Y-109985238D01*
X186999523Y-110080476D01*
X186904285Y-110128095D01*
M02*
